<svg width="410" height="410" viewBox="0 0 410 410" fill="none" xmlns="http://www.w3.org/2000/svg">
<rect width="410" height="410" fill="#0E0A0F"/>
<mask id="mask0_3062_6653" style="mask-type:alpha" maskUnits="userSpaceOnUse" x="0" y="0" width="410" height="410">
<rect width="410" height="410" fill="white"/>
</mask>
<g mask="url(#mask0_3062_6653)">
<g opacity="0.06" filter="url(#filter0_f_3062_6653)">
<path fill-rule="evenodd" clip-rule="evenodd" d="M89.0048 125.813C88.447 61.6058 136.173 7.33039 188.279 -39.3456C242.37 -87.7995 304.716 -139.846 383.452 -137.95C461.064 -136.081 526.404 -85.7788 567.825 -30.2061C601.983 15.6227 579.14 71.636 580.045 125.813C580.974 181.458 622.499 249.56 573.108 286.304C523.556 323.167 449.429 271.676 383.452 272.066C316.468 272.462 248.898 317.256 191.128 288.561C126.053 256.238 89.5596 189.665 89.0048 125.813Z" fill="white"/>
</g>
<g opacity="0.2" filter="url(#filter1_f_3062_6653)">
<path fill-rule="evenodd" clip-rule="evenodd" d="M-34.9972 111.782C-35.3141 75.3278 -8.20468 44.5126 21.3925 18.012C52.117 -9.49807 87.5308 -39.0477 132.254 -37.9712C176.339 -36.9102 213.454 -8.35082 236.982 23.201C256.384 49.2206 243.409 81.0225 243.923 111.782C244.45 143.375 268.038 182.04 239.983 202.902C211.836 223.831 169.73 194.597 132.254 194.818C94.2061 195.043 55.825 220.475 23.0108 204.183C-13.9531 185.832 -34.6821 148.034 -34.9972 111.782Z" fill="#9966FF"/>
</g>
<g opacity="0.1" filter="url(#filter2_f_3062_6653)">
<path fill-rule="evenodd" clip-rule="evenodd" d="M56.0048 406.813C55.447 342.605 103.173 288.33 155.279 241.654C209.37 193.2 271.716 141.154 350.452 143.05C428.064 144.919 493.404 195.221 534.825 250.793C568.983 296.622 546.14 352.636 547.045 406.813C547.974 462.458 589.499 530.559 540.108 567.303C490.556 604.167 416.429 552.676 350.452 553.066C283.468 553.462 215.898 598.255 158.128 569.561C93.0531 537.238 56.5596 470.664 56.0048 406.813Z" fill="#9966FF"/>
</g>
</g>
<defs>
<filter id="filter0_f_3062_6653" x="-11" y="-238" width="708.254" height="637.606" filterUnits="userSpaceOnUse" color-interpolation-filters="sRGB">
<feFlood flood-opacity="0" result="BackgroundImageFix"/>
<feBlend mode="normal" in="SourceGraphic" in2="BackgroundImageFix" result="shape"/>
<feGaussianBlur stdDeviation="50" result="effect1_foregroundBlur_3062_6653"/>
</filter>
<filter id="filter1_f_3062_6653" x="-135" y="-138" width="488.699" height="448.454" filterUnits="userSpaceOnUse" color-interpolation-filters="sRGB">
<feFlood flood-opacity="0" result="BackgroundImageFix"/>
<feBlend mode="normal" in="SourceGraphic" in2="BackgroundImageFix" result="shape"/>
<feGaussianBlur stdDeviation="50" result="effect1_foregroundBlur_3062_6653"/>
</filter>
<filter id="filter2_f_3062_6653" x="-44" y="42.9995" width="708.254" height="637.606" filterUnits="userSpaceOnUse" color-interpolation-filters="sRGB">
<feFlood flood-opacity="0" result="BackgroundImageFix"/>
<feBlend mode="normal" in="SourceGraphic" in2="BackgroundImageFix" result="shape"/>
<feGaussianBlur stdDeviation="50" result="effect1_foregroundBlur_3062_6653"/>
</filter>
</defs>
</svg>
