<svg width="410" height="410" viewBox="0 0 410 410" fill="none" xmlns="http://www.w3.org/2000/svg">
<rect width="410" height="410" fill="#0E0A0F"/>
<mask id="mask0_3062_6733" style="mask-type:alpha" maskUnits="userSpaceOnUse" x="0" y="0" width="410" height="410">
<rect width="410" height="410" fill="white"/>
</mask>
<g mask="url(#mask0_3062_6733)">
<g opacity="0.2" filter="url(#filter0_f_3062_6733)">
<path fill-rule="evenodd" clip-rule="evenodd" d="M257.696 75.672C258.013 112.126 230.904 142.942 201.307 169.442C170.582 196.952 135.168 226.502 90.4447 225.425C46.3598 224.364 9.24513 195.805 -14.2825 164.253C-33.6848 138.234 -20.7099 106.432 -21.2236 75.672C-21.7512 44.0791 -45.3384 5.41417 -17.2834 -15.4475C10.863 -36.377 52.9689 -7.14283 90.4447 -7.36425C128.493 -7.58904 166.874 -33.0207 199.688 -16.7294C236.652 1.6223 257.381 39.4198 257.696 75.672Z" fill="#CB6AFB"/>
</g>
<g opacity="0.1" filter="url(#filter1_f_3062_6733)">
<path fill-rule="evenodd" clip-rule="evenodd" d="M115.005 393.813C114.447 329.605 162.173 275.33 214.279 228.654C268.37 180.2 330.716 128.154 409.452 130.05C487.064 131.919 552.404 182.221 593.825 237.793C627.983 283.622 605.14 339.636 606.045 393.813C606.974 449.458 648.499 517.559 599.108 554.303C549.556 591.167 475.429 539.676 409.452 540.066C342.468 540.462 274.898 585.255 217.128 556.561C152.053 524.238 115.56 457.664 115.005 393.813Z" fill="#CB6AFB"/>
</g>
<g opacity="0.06" filter="url(#filter2_f_3062_6733)">
<path fill-rule="evenodd" clip-rule="evenodd" d="M-17.9952 216.813C-18.553 152.605 29.1733 98.3299 81.2792 51.6539C135.37 3.20005 197.716 -48.8462 276.452 -46.9502C354.064 -45.0813 419.404 5.22072 460.825 60.7934C494.983 106.622 472.14 162.636 473.045 216.813C473.974 272.458 515.499 340.559 466.108 377.303C416.556 414.167 342.429 362.676 276.452 363.066C209.468 363.462 141.898 408.255 84.1283 379.561C19.0531 347.238 -17.4404 280.664 -17.9952 216.813Z" fill="white"/>
</g>
</g>
<defs>
<filter id="filter0_f_3062_6733" x="-131" y="-123" width="488.699" height="448.454" filterUnits="userSpaceOnUse" color-interpolation-filters="sRGB">
<feFlood flood-opacity="0" result="BackgroundImageFix"/>
<feBlend mode="normal" in="SourceGraphic" in2="BackgroundImageFix" result="shape"/>
<feGaussianBlur stdDeviation="50" result="effect1_foregroundBlur_3062_6733"/>
</filter>
<filter id="filter1_f_3062_6733" x="15" y="29.9995" width="708.254" height="637.606" filterUnits="userSpaceOnUse" color-interpolation-filters="sRGB">
<feFlood flood-opacity="0" result="BackgroundImageFix"/>
<feBlend mode="normal" in="SourceGraphic" in2="BackgroundImageFix" result="shape"/>
<feGaussianBlur stdDeviation="50" result="effect1_foregroundBlur_3062_6733"/>
</filter>
<filter id="filter2_f_3062_6733" x="-118" y="-147" width="708.254" height="637.606" filterUnits="userSpaceOnUse" color-interpolation-filters="sRGB">
<feFlood flood-opacity="0" result="BackgroundImageFix"/>
<feBlend mode="normal" in="SourceGraphic" in2="BackgroundImageFix" result="shape"/>
<feGaussianBlur stdDeviation="50" result="effect1_foregroundBlur_3062_6733"/>
</filter>
</defs>
</svg>
