<svg width="410" height="410" viewBox="0 0 410 410" fill="none" xmlns="http://www.w3.org/2000/svg">
<rect width="410" height="410" fill="#0E0A0F"/>
<mask id="mask0_3062_6522" style="mask-type:alpha" maskUnits="userSpaceOnUse" x="0" y="0" width="410" height="410">
<rect width="410" height="410" fill="white"/>
</mask>
<g mask="url(#mask0_3062_6522)">
<g opacity="0.06" filter="url(#filter0_f_3062_6522)">
<path fill-rule="evenodd" clip-rule="evenodd" d="M33.9697 148.277C33.4118 84.0697 81.1381 29.7943 133.244 -16.8817C187.335 -65.3356 249.681 -117.382 328.417 -115.486C406.029 -113.617 471.369 -63.3149 512.79 -7.74221C546.948 38.0865 524.105 94.0999 525.01 148.277C525.938 203.922 567.464 272.023 518.073 308.767C468.521 345.631 394.393 294.14 328.417 294.53C261.433 294.926 193.863 339.719 136.093 311.025C71.018 278.702 34.5245 212.129 33.9697 148.277Z" fill="white"/>
</g>
<g opacity="0.2" filter="url(#filter1_f_3062_6522)">
<path fill-rule="evenodd" clip-rule="evenodd" d="M115.226 193.75C71.9765 194.017 35.4176 171.166 3.97754 146.219C-28.6601 120.322 -63.7175 90.4716 -62.4404 52.7743C-61.1815 15.6155 -27.299 -15.6682 10.1338 -35.4995C41.0032 -51.8535 78.7327 -40.9171 115.226 -41.3501C152.707 -41.7948 198.579 -61.6763 223.329 -38.0289C248.159 -14.3045 213.476 21.1862 213.739 52.7743C214.006 84.845 244.178 117.196 224.85 144.855C203.077 176.012 158.235 193.484 115.226 193.75Z" fill="#4D66E5"/>
</g>
<g opacity="0.15" filter="url(#filter2_f_3062_6522)">
<path fill-rule="evenodd" clip-rule="evenodd" d="M-15.7647 459.1C-16.3226 394.892 31.4037 340.617 83.5097 293.941C137.6 245.487 199.946 193.441 278.683 195.337C356.294 197.206 421.635 247.508 463.055 303.081C497.213 348.909 474.371 404.923 475.275 459.1C476.204 514.745 517.729 582.846 468.338 619.59C418.787 656.454 344.659 604.963 278.683 605.353C211.698 605.749 144.128 650.542 86.3588 621.848C21.2836 589.525 -15.2099 522.952 -15.7647 459.1Z" fill="#4D66E5"/>
</g>
</g>
<defs>
<filter id="filter0_f_3062_6522" x="-66.0352" y="-215.536" width="708.254" height="637.606" filterUnits="userSpaceOnUse" color-interpolation-filters="sRGB">
<feFlood flood-opacity="0" result="BackgroundImageFix"/>
<feBlend mode="normal" in="SourceGraphic" in2="BackgroundImageFix" result="shape"/>
<feGaussianBlur stdDeviation="50" result="effect1_foregroundBlur_3062_6522"/>
</filter>
<filter id="filter1_f_3062_6522" x="-162.473" y="-149.59" width="494.762" height="443.342" filterUnits="userSpaceOnUse" color-interpolation-filters="sRGB">
<feFlood flood-opacity="0" result="BackgroundImageFix"/>
<feBlend mode="normal" in="SourceGraphic" in2="BackgroundImageFix" result="shape"/>
<feGaussianBlur stdDeviation="50" result="effect1_foregroundBlur_3062_6522"/>
</filter>
<filter id="filter2_f_3062_6522" x="-115.77" y="95.2866" width="708.254" height="637.606" filterUnits="userSpaceOnUse" color-interpolation-filters="sRGB">
<feFlood flood-opacity="0" result="BackgroundImageFix"/>
<feBlend mode="normal" in="SourceGraphic" in2="BackgroundImageFix" result="shape"/>
<feGaussianBlur stdDeviation="50" result="effect1_foregroundBlur_3062_6522"/>
</filter>
</defs>
</svg>
