<svg width="126" height="96" viewBox="0 0 126 96" fill="none" xmlns="http://www.w3.org/2000/svg">
<g clip-path="url(#clip0_3017_6709)">
<path fill-rule="evenodd" clip-rule="evenodd" d="M56.1152 9.13894C52.1444 15.3324 50.2559 18.4835 50.2559 18.9158C50.2559 19.3598 55.0945 27.0787 66.1505 44.2722C74.8927 57.8673 82.6678 69.9391 83.4288 71.0985L84.8122 73.2064L87.0162 68.358C89.9977 61.7992 90.7223 59.8782 91.2862 57.0378C92.4364 51.2426 91.463 44.2713 88.8121 39.3211C88.0666 37.9289 63.7499 1.42485 62.8966 0.417042C62.7024 0.187788 62.4155 0 62.259 0C62.1026 0 59.3377 4.11251 56.1152 9.13894ZM45.5743 40.0241C40.1163 41.2009 34.8104 44.436 31.504 48.6023C28.9311 51.845 0.0307832 94.7257 0.0153916 95.3239L0 95.9197L12.6328 95.9814C23.1963 96.0329 25.319 95.9883 25.5913 95.71C25.7707 95.5269 29.2683 90.4867 33.3641 84.5094C37.4599 78.5324 40.8792 73.6411 40.9624 73.6399C41.0459 73.6387 42.5016 76.0237 44.1977 78.9401C47.6286 84.8395 49.1876 87.0786 51.161 88.9413C55.4401 92.9804 60.6737 95.3091 66.5468 95.7874C67.9119 95.8987 81.8306 95.9204 97.4771 95.8355C123.748 95.6933 125.931 95.6511 126 95.2851C126.081 94.853 113.264 74.4968 112.483 73.8165C112.031 73.4232 109.979 73.3994 76.5823 73.3994C57.1005 73.3994 41.1672 73.3191 41.1751 73.2207C41.1828 73.1223 46.2063 65.7497 52.3384 56.8369C58.4706 47.9241 63.4614 40.5999 63.429 40.5606C63.2844 40.3849 51.9973 39.5649 49.9061 39.5782C48.6067 39.5863 46.6886 39.7839 45.5743 40.0241Z" fill="url(#paint0_linear_3017_6709)"/>
</g>
<defs>
<linearGradient id="paint0_linear_3017_6709" x1="63" y1="0" x2="63" y2="96" gradientUnits="userSpaceOnUse">
<stop offset="0.25" stop-color="#9966FF"/>
<stop offset="1" stop-color="#9966FF" stop-opacity="0.3"/>
</linearGradient>
<clipPath id="clip0_3017_6709">
<rect width="126" height="96" fill="white"/>
</clipPath>
</defs>
</svg>
